<?xml version="1.0" encoding="UTF-8" standalone="no"?>
<!-- Created with Inkscape (http://www.inkscape.org/) -->

<svg
   version="1.1"
   id="svg1"
   width="512"
   height="512"
   viewBox="0 0 511.99999 512"
   sodipodi:docname="crist.png"
   xmlns:inkscape="http://www.inkscape.org/namespaces/inkscape"
   xmlns:sodipodi="http://sodipodi.sourceforge.net/DTD/sodipodi-0.dtd"
   xmlns="http://www.w3.org/2000/svg"
   xmlns:svg="http://www.w3.org/2000/svg">
  <defs
     id="defs1" />
  <sodipodi:namedview
     id="namedview1"
     pagecolor="#ffffff"
     bordercolor="#000000"
     borderopacity="0.25"
     inkscape:showpageshadow="2"
     inkscape:pageopacity="0.0"
     inkscape:pagecheckerboard="0"
     inkscape:deskcolor="#d1d1d1" />
  <g
     inkscape:groupmode="layer"
     inkscape:label="Image"
     id="g1"
     transform="translate(637.63655,64.096369)">
    <path
       style="fill:#ffffff;stroke-width:1.78125"
       d="m -439.07765,432.44095 c -8.70259,-15.71048 -18.4954,-25.91447 -30.28122,-31.55262 -7.43754,-3.55801 -12.69504,-4.43222 -31.88164,-5.30124 l -22.97539,-1.04064 24.31133,-28.8277 24.31133,-28.82772 v -81.16435 -81.16437 h -28.58093 -28.58093 l -26.99558,14.24999 c -14.84757,7.83749 -27.63612,14.24998 -28.41901,14.24998 -0.78288,0 -1.42342,-7.23979 -1.42342,-16.08845 0,-9.59204 -0.98529,-18.44657 -2.44009,-21.92841 -3.21081,-7.68453 -13.6543,-16.43108 -31.26771,-26.18707 -7.88079,-4.36514 -14.33183,-8.3374 -14.33564,-8.82724 -0.004,-0.48984 8.15773,-5.7578 18.13677,-11.70656 10.12455,-6.03551 20.54638,-13.78195 23.57987,-17.52668 5.20273,-6.422549 5.46205,-7.544629 6.03867,-26.129379 l 0.6025,-19.41865 29.04411,15.17244 29.04413,15.17245 27.35332,-0.49272 27.35332,-0.49273 0.49855,-20.5492 0.49855,-20.5492 -24.10009,-28.67744 c -13.25505,-15.77259385 -24.10009,-29.090925 -24.10009,-29.596292 0,-0.505368 10.62069,-1.222901 23.60154,-1.594519 21.3195,-0.610338 24.47361,-1.130544 32.62081,-5.380137 11.04442,-5.76079 19.62503,-15.023321 28.31896,-30.569513 3.63493,-6.499851 7.14113,-11.805042 7.79159,-11.789314 0.65044,0.01573 4.7688,6.502811 9.15188,14.41574 14.55586,26.278167 25.32176,32.294107 60.18801,33.632837 l 23.62607,0.907148 -24.00529,28.499969 -24.00531,28.499971 -0.0661,21.82029 -0.0661,21.82029 28.05465,-0.0769 28.05466,-0.0769 27.60934,-14.72716 27.60935,-14.72715 0.99256,17.92123 c 0.54592,9.85668 1.88519,19.52436 2.97619,21.48373 3.86192,6.935879 15.82131,16.643699 31.29921,25.406579 l 15.67422,8.87404 -19.23671,11.53098 c -26.48387,15.87512 -29.71403,20.56007 -30.53645,44.28917 -0.33673,9.7156 -0.9721,17.66474 -1.41193,17.66474 -0.43984,0 -13.05828,-6.41249 -28.04096,-14.24998 L -330.728,174.5623 h -27.90143 -27.90145 v 81.75004 81.75006 l 23.85689,28.24201 23.85688,28.24203 -22.52094,1.01315 c -34.3016,1.54312 -45.99065,8.31776 -62.02477,35.94775 -4.40608,7.59257 -8.1413,13.80274 -8.30047,13.80039 -0.15918,-0.002 -3.49567,-5.79242 -7.41441,-12.86679 z m 14.88428,-47.45865 c 3.56987,-2.81106 10.7601,-7.26416 15.97824,-9.89579 10.59143,-5.34147 10.76972,-3.56474 -1.90155,-18.95154 l -6.69537,-8.13024 V 246.1429 144.28109 h 46.58658 46.58659 l 11.43846,6.39675 c 6.29115,3.51821 11.67679,6.12329 11.96808,5.78906 0.29127,-0.33424 1.9222,-3.41316 3.62427,-6.84206 1.70207,-3.42891 5.93843,-9.2033 9.41416,-12.83201 l 6.3195,-6.59763 -6.41501,-7.10065 c -3.52824,-3.90533 -7.7646,-9.75358 -9.41416,-12.99608 -1.64954,-3.2425 -3.2169,-6.14833 -3.48302,-6.4574 -0.2661,-0.30907 -5.35145,1.89523 -11.30077,4.89843 l -10.81695,5.46038 h -47.25386 -47.25387 V 72.827731 31.655582 l 9.13848,-10.548683 c 5.02616,-5.801774 8.83358,-10.823948 8.46093,-11.1603849 -0.37266,-0.336437 -4.85617,-2.710545 -9.96334,-5.275795 -5.1072,-2.56525 -12.08591,-7.12262 -15.50828,-10.127487 l -6.22245,-5.4633941 -9.44776,7.1331161 c -5.19626,3.92321505 -12.80657,8.584547 -16.91179,10.358515 l -7.46404,3.225395 8.81852,10.6553349 8.81851,10.655336 v 41.446166 41.446179 h -47.43156 -47.43156 l -9.71183,-5.55655 c -5.3415,-3.0561 -10.27568,-4.85961 -10.96485,-4.00781 -0.68916,0.85181 -4.28403,6.09207 -7.9886,11.64501 -3.70457,5.55297 -7.97166,10.57062 -9.48243,11.15037 -2.19644,0.84285 -1.47472,2.46216 3.60178,8.08123 3.49175,3.86496 8.00353,10.27104 10.02617,14.23576 l 3.67754,7.20857 12.38638,-6.23769 12.38637,-6.23768 h 45.4663 45.46629 v 102.6252 102.62522 l -8.8683,10.2368 -8.86829,10.23681 11.42522,5.79914 c 6.28387,3.18952 13.2198,7.70937 15.41316,10.0441 5.05887,5.38491 5.92911,5.33028 13.79811,-0.86606 z"
       id="path1" />
  </g>
</svg>
