<?xml version="1.0" encoding="UTF-8" standalone="no"?>
<!-- Created with Inkscape (http://www.inkscape.org/) -->

<svg
   version="1.1"
   id="svg1"
   width="225"
   height="224.99998"
   viewBox="0 0 225 224.99998"
   sodipodi:docname="eva.png"
   xmlns:inkscape="http://www.inkscape.org/namespaces/inkscape"
   xmlns:sodipodi="http://sodipodi.sourceforge.net/DTD/sodipodi-0.dtd"
   xmlns="http://www.w3.org/2000/svg"
   xmlns:svg="http://www.w3.org/2000/svg">
  <defs
     id="defs1" />
  <sodipodi:namedview
     id="namedview1"
     pagecolor="#ffffff"
     bordercolor="#000000"
     borderopacity="0.25"
     inkscape:showpageshadow="2"
     inkscape:pageopacity="0.0"
     inkscape:pagecheckerboard="0"
     inkscape:deskcolor="#d1d1d1" />
  <g
     inkscape:groupmode="layer"
     inkscape:label="Image"
     id="g1"
     transform="translate(448.70497,-7.8048816)">
    <path
       style="fill:#ffffff;stroke-width:0.276753"
       d="m -420.79403,152.68081 c -0.22385,-0.26973 -0.32903,-10.09775 -0.37983,-35.49355 l -0.0702,-35.120516 -13.67628,-0.13838 c -9.95988,-0.10077 -13.70511,-0.22494 -13.78238,-0.45693 -0.0584,-0.1752 1.02876,-0.9847 2.41583,-1.79889 1.38706,-0.81419 2.8123,-1.66715 3.16721,-1.89547 0.90315,-0.58102 5.54714,-3.35808 6.60639,-3.95056 0.48295,-0.27013 1.21282,-0.70602 1.62194,-0.96863 0.82884,-0.53205 4.31629,-2.64037 10.17443,-6.150922 1.39702,-0.837177 2.87446,-1.722689 3.2832,-1.967806 1.8745,-1.124104 2.70499,-1.615201 5.76995,-3.411974 1.80169,-1.056205 3.33807,-1.997223 3.41418,-2.091153 0.0761,-0.09393 1.60679,-1.035573 3.40153,-2.092544 1.79473,-1.056969 3.60054,-2.139966 4.01291,-2.406659 0.41237,-0.26669 1.12338,-0.674925 1.58002,-0.907187 0.45664,-0.232262 1.57749,-0.91348 2.49078,-1.513821 0.91328,-0.60034 2.03413,-1.281559 2.49077,-1.513821 0.45664,-0.232262 1.16074,-0.640497 1.56467,-0.907187 0.40392,-0.266693 1.57207,-0.983051 2.59587,-1.591907 1.02381,-0.608856 2.18779,-1.321879 2.58663,-1.584498 0.39883,-0.262616 1.1203,-0.698502 1.60325,-0.968635 0.48295,-0.27013 2.019,-1.176111 3.41344,-2.013288 1.39444,-0.837177 2.80511,-1.673269 3.13482,-1.857979 1.01372,-0.567914 1.64721,-1.021996 2.31312,-1.65804 l 0.63876,-0.610113 v -8.144508 -8.144508 l -0.6227,-0.166876 c -0.34248,-0.09178 -2.07077,-0.168576 -3.84065,-0.170654 -2.49729,-0.0029 -3.29395,-0.09534 -3.55726,-0.412608 -0.50324,-0.606376 -0.27965,-5.060489 0.27153,-5.408868 0.22832,-0.144314 1.86827,-0.264295 3.64434,-0.266626 1.77606,-0.0023 3.43399,-0.08282 3.68427,-0.178862 0.39779,-0.152646 0.44786,-0.694489 0.39784,-4.305098 -0.0335,-2.4210994 0.0555,-4.2431614 0.21508,-4.4027694 0.15215,-0.152149 1.42142,-0.236926 2.87664,-0.192135 l 2.60434,0.08016 0.0767,4.2779814 c 0.0537,2.997323 0.17801,4.342348 0.41512,4.492995 0.18613,0.118257 1.83289,0.218827 3.65946,0.223489 1.82657,0.0047 3.50784,0.12655 3.73616,0.270864 0.55118,0.348379 0.77477,4.802492 0.27153,5.408868 -0.26331,0.317271 -1.05997,0.409675 -3.55726,0.412608 -1.76988,0.0021 -3.49817,0.07887 -3.84065,0.170654 l -0.6227,0.166876 v 8.144508 8.144508 l 0.63876,0.610113 c 0.66591,0.636044 1.2994,1.090126 2.31312,1.65804 0.32971,0.18471 1.74038,1.020802 3.13482,1.857979 1.39444,0.837177 2.93049,1.743158 3.41344,2.013288 0.48295,0.270133 1.20441,0.706019 1.60325,0.968635 0.39884,0.262619 1.56282,0.975642 2.58663,1.584498 1.0238,0.608856 2.14759,1.293819 2.49731,1.52214 0.82754,0.540282 5.4653,3.317591 6.59694,3.950557 0.48295,0.270133 1.21283,0.706019 1.62194,0.968635 0.40912,0.262619 1.88656,1.16245 3.2832,1.999627 3.53202,2.117162 3.96691,2.378286 7.60528,4.566421 1.77168,1.065498 3.64224,2.186347 4.15682,2.490775 0.51457,0.304428 2.38514,1.425277 4.15682,2.490775 1.77168,1.065498 3.63632,2.186352 4.14365,2.490772 3.34512,2.00728 6.07792,3.66546 6.71635,4.07528 0.40912,0.26261 1.13899,0.6985 1.62194,0.96863 1.05925,0.59248 5.70324,3.36954 6.60639,3.95056 0.35491,0.22832 1.77082,1.0759 3.14648,1.8835 2.25904,1.32622 2.98669,1.87188 2.7387,2.05376 -0.047,0.0345 -6.31246,0.12789 -13.92316,0.20756 l -13.83764,0.14485 v 32.518446 32.51845 l 8.85609,0.08 c 4.87084,0.044 9.26084,0.007 9.75553,-0.0817 l 0.89945,-0.1617 v -17.14272 -17.14266 l -1.1762,-0.74801 c -0.64691,-0.4114 -1.79889,-1.08281 -2.55996,-1.49202 -0.76108,-0.40921 -1.81965,-1.00878 -2.3524,-1.33237 -0.53275,-0.3236 -1.34225,-0.77645 -1.7989,-1.00635 -0.45664,-0.2299 -1.01706,-0.53297 -1.24538,-0.6735 -1.49418,-0.91961 -5.81327,-3.33403 -5.96417,-3.33403 -0.10072,0 -0.67227,-0.38741 -1.27011,-0.86091 l -1.08699,-0.86092 0.0785,-2.806056 0.0785,-2.80606 0.77896,-0.0893 c 0.43169,-0.0495 1.11027,0.13513 1.52214,0.41413 0.40875,0.27689 1.05453,0.65721 1.43506,0.84516 0.38054,0.18795 0.87869,0.46761 1.10701,0.62147 0.63188,0.42581 5.32142,3.078276 5.95019,3.365506 0.30443,0.13906 1.05166,0.55529 1.66051,0.92495 0.60886,0.36966 1.29382,0.76173 1.52214,0.87126 1.13174,0.54294 7.72468,4.41595 8.51015,4.99927 l 0.89945,0.66796 v 21.51728 c 0,16.36666 -0.0795,21.59678 -0.33211,21.84939 -0.25436,0.25436 -7.60762,0.3321 -31.41143,0.3321 -17.09364,0 -31.08036,-0.0934 -31.08161,-0.20756 -0.001,-0.11416 -0.0324,-5.06458 -0.0692,-11.00093 -0.0659,-10.6238 -0.0767,-10.81105 -0.69152,-11.9196 -0.84616,-1.52577 -1.88394,-2.4637 -3.48045,-3.14563 -1.68924,-0.72153 -2.83128,-0.72153 -4.52052,0 -1.59651,0.68193 -2.63429,1.61986 -3.48045,3.14563 -0.61489,1.10872 -0.62562,1.29418 -0.68979,11.9196 -0.0359,5.93635 -0.067,10.88677 -0.0692,11.00093 -0.002,0.11416 -8.20831,0.20756 -18.2358,0.20756 -14.95359,0 -18.28746,-0.0671 -18.54137,-0.37301 z m 30.68461,-13.87976 c 0.0892,-5.3536 0.24831,-8.49918 0.44789,-8.85608 0.17023,-0.30443 0.39147,-1.00802 0.49164,-1.56352 0.10017,-0.55551 0.36564,-1.16232 0.58993,-1.34847 0.2243,-0.18614 0.40781,-0.50894 0.40781,-0.71733 0,-0.6626 3.40318,-3.87544 4.91595,-4.641 0.80109,-0.40541 2.42289,-0.92042 3.60399,-1.14447 1.89242,-0.35899 2.40144,-0.35877 4.28609,0.002 3.59612,0.68805 6.33946,2.49529 8.30156,5.46883 1.80491,2.73533 1.94284,3.56842 2.11931,12.80022 l 0.15871,8.30259 12.00681,0.0721 c 8.63426,0.0519 12.11295,-0.0159 12.38469,-0.24145 0.31569,-0.262 0.37787,-6.08281 0.37787,-35.37197 0,-26.898606 0.0773,-35.135656 0.3321,-35.390466 0.23685,-0.23684 1.97007,-0.3321 6.04244,-0.3321 3.14068,0 5.78802,-0.0777 5.88297,-0.17264 0.17525,-0.17524 -1.03425,-1.07126 -2.29441,-1.69974 -0.38054,-0.18979 -1.43911,-0.83896 -2.3524,-1.44262 -0.91328,-0.60366 -2.03413,-1.28759 -2.49077,-1.51985 -0.45665,-0.23227 -1.20388,-0.66856 -1.66052,-0.96955 -0.45664,-0.30099 -1.22472,-0.76827 -1.70685,-1.0384 -1.15183,-0.64537 -5.73371,-3.402065 -6.68214,-4.020325 -0.40912,-0.26669 -1.11747,-0.675125 -1.57411,-0.907628 -0.45664,-0.232505 -1.70203,-0.983903 -2.76753,-1.669776 -1.0655,-0.685871 -2.18634,-1.369002 -2.49077,-1.518067 -0.30443,-0.149064 -0.88801,-0.487118 -1.29686,-0.751234 -0.40884,-0.264113 -2.27692,-1.391397 -4.15129,-2.505069 -1.87437,-1.113675 -4.90241,-2.938486 -6.72897,-4.055139 -1.82657,-1.116654 -4.42486,-2.696239 -5.77398,-3.510194 -1.34912,-0.813955 -2.90585,-1.753722 -3.45941,-2.088371 -0.55356,-0.334652 -1.27458,-0.731721 -1.60228,-0.882376 -0.32769,-0.150656 -0.67191,-0.397055 -0.76492,-0.547553 -0.093,-0.150498 -0.59259,-0.413391 -1.11016,-0.584209 -0.99039,-0.326856 -1.82034,-0.08461 -3.53126,1.030686 -0.63635,0.414822 -3.13141,1.931502 -6.71635,4.082682 -0.50733,0.304428 -2.37325,1.425276 -4.14649,2.490775 -1.77324,1.065498 -3.56105,2.124077 -3.9729,2.352398 -0.41185,0.228321 -0.81109,0.485837 -0.8872,0.572261 -0.0761,0.08642 -1.29811,0.833654 -2.71556,1.660517 -1.41746,0.82686 -2.91192,1.719479 -3.32104,1.983592 -0.40911,0.264116 -0.99292,0.608386 -1.29735,0.765044 -0.30443,0.156662 -1.42528,0.837534 -2.49077,1.513052 -1.0655,0.675517 -2.31089,1.420699 -2.76753,1.655964 -0.45664,0.235262 -1.15952,0.645955 -1.56196,0.912645 -0.62812,0.416255 -2.23575,1.387002 -6.76123,4.082685 -0.51107,0.30442 -2.37351,1.42527 -4.13875,2.49077 -1.76524,1.0655 -3.5397,2.12408 -3.94325,2.3524 -0.40355,0.22832 -0.89459,0.56264 -1.09119,0.74294 -0.1966,0.1803 -0.6076,0.40721 -0.91334,0.50424 -1.47709,0.46881 0.22185,0.69009 5.29849,0.69009 3.28749,0 5.75439,0.11639 6.07223,0.28649 0.52492,0.2808 0.53531,0.96706 0.53531,35.368866 0,27.08417 0.0764,35.15889 0.33497,35.41749 0.25412,0.25412 3.24331,0.31757 12.38469,0.26291 l 12.04971,-0.0721 z"
       id="path1" />
    <path
       style="fill:#ffffff;stroke-width:0.276753"
       d="m -412.19429,95.710654 c -0.51397,-0.51396 -0.44069,-5.20153 0.0932,-5.96379 0.23393,-0.33399 1.26137,-1.0763 2.28321,-1.64959 3.05169,-1.71211 3.48102,-1.94986 4.34865,-2.40816 0.45664,-0.24121 1.20388,-0.68605 1.66052,-0.98854 0.45664,-0.30248 1.07933,-0.66264 1.38376,-0.80036 0.60474,-0.27356 5.28113,-2.91414 5.95019,-3.35984 0.22832,-0.1521 0.72647,-0.42876 1.10701,-0.61481 0.70834,-0.34631 8.93727,-4.9963 9.68634,-5.47354 0.22832,-0.14546 0.78875,-0.45315 1.24539,-0.68374 0.45664,-0.23059 1.32841,-0.70824 1.93727,-1.06146 0.60886,-0.35321 1.843,-1.03943 2.74255,-1.52494 0.89954,-0.4855 1.79136,-1.01206 1.98181,-1.17013 0.23457,-0.19467 0.40258,-0.19631 0.52077,-0.005 0.096,0.15527 0.69861,0.53063 1.33921,0.83413 0.64061,0.3035 1.91197,0.99333 2.82525,1.53294 0.91329,0.53962 2.03414,1.16848 2.49078,1.39746 0.45664,0.22899 1.01707,0.53428 1.24539,0.67844 0.9219,0.58205 7.37175,4.24049 7.88745,4.47386 0.30443,0.13776 1.05166,0.55292 1.66052,0.92258 0.60885,0.36966 1.29382,0.76485 1.52214,0.8782 0.56457,0.28028 5.57107,3.10215 6.08856,3.43176 0.22832,0.14543 0.6642,0.3865 0.96863,0.53572 0.30443,0.14922 1.05166,0.57904 1.66052,0.95515 0.60886,0.37612 1.82042,1.05998 2.69237,1.51969 2.49238,1.31405 3.76276,2.17973 4.08654,2.78473 0.17083,0.31919 0.26492,1.64318 0.21947,3.0882 -0.0645,2.05203 -0.17098,2.58698 -0.56388,2.83412 -0.35733,0.22477 -0.6113,0.21726 -0.96863,-0.0286 -0.91093,-0.62688 -4.86373,-2.906 -6.57288,-3.78983 -0.45664,-0.23613 -1.01707,-0.5499 -1.24539,-0.69725 -0.84305,-0.5441 -5.38965,-3.12919 -5.93737,-3.37585 -0.31148,-0.14028 -1.06447,-0.55749 -1.67333,-0.92715 -0.60886,-0.36966 -1.29382,-0.75985 -1.52214,-0.86708 -0.47211,-0.22174 -7.39203,-4.14917 -8.02583,-4.5551 -0.22832,-0.14624 -0.75761,-0.4008 -1.1762,-0.56571 -0.41859,-0.1649 -0.76107,-0.40379 -0.76107,-0.53086 0,-0.12706 -0.28021,-0.31785 -0.62269,-0.42397 -0.34249,-0.10611 -1.68032,-0.81504 -2.97297,-1.57538 -1.29265,-0.76034 -2.6003,-1.38192 -2.9059,-1.38128 -0.3056,6.4e-4 -1.32382,0.4521 -2.26272,1.00323 -0.9389,0.55113 -1.77329,1.00206 -1.85421,1.00206 -0.0809,0 -0.69431,0.36929 -1.36309,0.82065 -0.66879,0.45136 -1.51567,0.94922 -1.88196,1.10635 -0.36629,0.15714 -0.85279,0.40389 -1.08111,0.54833 -0.76635,0.48483 -9.54311,5.45797 -9.9631,5.64535 -0.22832,0.10187 -1.2869,0.68616 -2.3524,1.29842 -1.0655,0.61225 -2.24861,1.2628 -2.62915,1.44566 -0.38053,0.18285 -0.75415,0.41394 -0.83026,0.51353 -0.0761,0.0996 -0.88561,0.57893 -1.79889,1.06521 -0.91328,0.48629 -1.84732,0.99119 -2.07565,1.12202 -0.22832,0.13083 -1.62245,0.93054 -3.09808,1.77713 -2.91008,1.66957 -2.99637,1.69943 -3.48863,1.20717 z"
       id="path2" />
    <path
       style="fill:#ffffff;stroke-width:0.276753"
       d="m -446.51164,152.72172 c -0.2526,-0.25261 -0.3321,-5.48273 -0.3321,-21.84939 v -21.51728 l 0.89945,-0.66796 c 0.49469,-0.36738 2.58072,-1.62365 4.63561,-2.79172 2.05488,-1.16807 3.92297,-2.24625 4.15129,-2.39597 0.22832,-0.14971 0.78874,-0.46069 1.24538,-0.69107 0.45665,-0.23037 1.32842,-0.70367 1.93727,-1.05177 0.60886,-0.34809 1.79198,-1.00418 2.62916,-1.45797 0.83717,-0.453776 1.83348,-1.022716 2.21402,-1.264306 2.79509,-1.77448 4.33135,-2.49157 5.10178,-2.38139 0.52879,0.0756 0.57754,0.29282 0.65028,2.89717 l 0.0786,2.815426 -0.90889,0.67782 c -0.49989,0.3728 -2.27882,1.44679 -3.95317,2.38665 -1.67436,0.93987 -3.23109,1.82569 -3.45941,1.9685 -0.22832,0.14281 -0.78875,0.44936 -1.24539,0.68123 -0.45664,0.23187 -1.51892,0.82529 -2.36062,1.31871 -0.8417,0.49341 -2.42874,1.39527 -3.52675,2.00413 l -1.99638,1.10701 -0.002,17.19558 -0.002,17.19559 0.62269,0.16687 c 0.34248,0.0918 4.13653,0.16858 8.43122,0.17066 7.43475,0.004 7.82225,0.0294 8.09502,0.53909 0.40113,0.7495 0.36623,4.53255 -0.0456,4.94439 -0.47712,0.47712 -22.38265,0.47712 -22.85978,0 z"
       id="path3" />
  </g>
</svg>
