<?xml version="1.0" encoding="UTF-8" standalone="no"?>
<!-- Created with Inkscape (http://www.inkscape.org/) -->

<svg
   version="1.1"
   id="svg1"
   width="800"
   height="600"
   viewBox="0 0 800 600"
   sodipodi:docname="umbandismo.svg"
   inkscape:version="1.3 (0e150ed6c4, 2023-07-21)"
   xmlns:inkscape="http://www.inkscape.org/namespaces/inkscape"
   xmlns:sodipodi="http://sodipodi.sourceforge.net/DTD/sodipodi-0.dtd"
   xmlns="http://www.w3.org/2000/svg"
   xmlns:svg="http://www.w3.org/2000/svg">
  <defs
     id="defs1" />
  <sodipodi:namedview
     id="namedview1"
     pagecolor="#ffffff"
     bordercolor="#000000"
     borderopacity="0.25"
     inkscape:showpageshadow="2"
     inkscape:pageopacity="0.0"
     inkscape:pagecheckerboard="0"
     inkscape:deskcolor="#d1d1d1"
     inkscape:zoom="0.33875"
     inkscape:cx="1282.6568"
     inkscape:cy="270.1107"
     inkscape:window-width="1920"
     inkscape:window-height="1009"
     inkscape:window-x="1912"
     inkscape:window-y="-8"
     inkscape:window-maximized="1"
     inkscape:current-layer="g1" />
  <g
     inkscape:groupmode="layer"
     inkscape:label="Image"
     id="g1"
     transform="translate(-1111.9751,34.997355)">
    <path
       style="fill:#ffffff;stroke-width:0.52185"
       d="m 1361.4816,395.21449 c -0.8329,-1.27105 -1.0152,-1.30462 -7.087,-1.30462 -6.2209,0 -6.2351,-0.003 -7.8337,-1.56555 -1.538,-1.50339 -1.7869,-1.56555 -6.2682,-1.56555 -4.4055,0 -4.7146,-0.0732 -5.524,-1.30846 -0.5846,-0.89233 -1.5239,-1.41505 -2.9535,-1.64366 -1.2385,-0.19804 -2.5326,-0.83706 -3.1627,-1.56172 -0.6422,-0.73854 -1.6446,-1.22651 -2.5197,-1.22651 -0.892,0 -2.1907,-0.64745 -3.3624,-1.67623 -1.6425,-1.44212 -2.258,-1.66105 -4.4069,-1.56755 -2.1857,0.0951 -2.7804,-0.12736 -4.7586,-1.78016 -1.2435,-1.03886 -2.5475,-2.29814 -2.8979,-2.79839 -0.3504,-0.50026 -1.54,-1.05394 -2.6435,-1.23041 -1.1209,-0.17924 -2.5261,-0.8739 -3.1837,-1.57395 -0.6475,-0.68922 -2.0429,-1.39546 -3.1009,-1.56943 -1.5151,-0.24912 -2.7875,-1.19282 -5.9914,-4.44342 -3.1014,-3.14653 -4.5172,-4.21142 -5.9592,-4.48193 -1.59,-0.29829 -3.8629,-2.33319 -14.2675,-12.77347 -10.4061,-10.4417 -12.3393,-12.616 -12.1441,-13.65835 0.1814,-0.96881 -0.4588,-1.94816 -2.93,-4.48206 -2.2413,-2.29813 -3.1622,-3.64118 -3.1622,-4.61182 0,-0.95571 -0.8671,-2.25757 -2.8702,-4.3091 -2.1292,-2.18083 -2.8701,-3.32624 -2.8701,-4.43719 0,-1.01073 -0.5089,-1.94407 -1.5656,-2.87126 -1.1428,-1.00279 -1.5655,-1.83651 -1.5655,-3.08747 0,-1.17505 -0.4079,-2.06832 -1.2975,-2.84185 -0.7136,-0.62047 -1.4466,-1.9692 -1.6288,-2.99719 -0.1822,-1.02797 -0.8614,-2.45613 -1.5095,-3.17367 -0.648,-0.71755 -1.335,-2.18703 -1.5267,-3.26552 -0.2226,-1.25247 -0.811,-2.26393 -1.6288,-2.79973 -1.1325,-0.74208 -1.2802,-1.21425 -1.2802,-4.09345 0,-2.91366 -0.1662,-3.42848 -1.5861,-4.91432 -1.5339,-1.60508 -1.5765,-1.77998 -1.2952,-5.31268 0.3096,-3.88897 -0.1123,-5.34659 -1.9764,-6.82816 -1.0162,-0.8077 -1.0741,-1.30933 -0.9443,-8.18383 l 0.1382,-7.32339 -1.6038,-1.67826 -1.6038,-1.67826 v -18.09639 -18.09639 l 1.3046,-1.22563 c 1.2746,-1.19741 1.3046,-1.39883 1.3046,-8.74857 v -7.52295 l 1.5656,-1.37375 c 1.5174,-1.3315 1.5655,-1.51535 1.5655,-5.97791 0,-4.31792 0.088,-4.6919 1.4207,-6.01552 1.2052,-1.19725 1.4514,-1.94241 1.6232,-4.91161 0.173,-2.99062 0.3833,-3.61873 1.4447,-4.31418 0.8247,-0.54034 1.355,-1.51914 1.5777,-2.91172 0.191,-1.19445 0.7739,-2.40482 1.3535,-2.81084 0.56,-0.39219 1.245,-1.7338 1.5224,-2.98135 0.2774,-1.24755 1.0794,-2.80615 1.7823,-3.46356 0.817,-0.7641 1.2781,-1.771 1.2781,-2.79126 0,-1.10043 0.4861,-2.05008 1.5655,-3.05843 1.0492,-0.98013 1.5656,-1.96576 1.5656,-2.98858 0,-0.95315 0.4898,-1.98631 1.3046,-2.75177 0.8276,-0.77751 1.3046,-1.79631 1.3046,-2.78645 0,-1.21722 0.6893,-2.23949 3.1311,-4.64373 2.4217,-2.38442 3.1311,-3.43148 3.1311,-4.62136 0,-1.3235 2.1654,-3.68784 15.498,-16.92208 13.0236,-12.9274 15.7351,-15.38363 16.9828,-15.38363 1.0954,0 2.2555,-0.75256 4.4245,-2.87018 2.127,-2.07673 3.3382,-2.87017 4.3811,-2.87017 1.0681,0 2.2474,-0.81096 4.5532,-3.1311 2.3886,-2.40355 3.4663,-3.1311 4.6376,-3.1311 0.9559,0 1.9871,-0.49099 2.7608,-1.31449 0.7156,-0.76173 2.0854,-1.450482 3.2574,-1.637902 1.2733,-0.2036 2.3062,-0.75631 2.7882,-1.49191 0.4973,-0.75905 1.522,-1.28945 2.9244,-1.51369 1.295,-0.20709 2.635,-0.85901 3.3489,-1.62934 0.9982,-1.07705 1.6734,-1.28412 4.1871,-1.28412 2.5584,0 3.2162,-0.21 4.4948,-1.43509 1.2886,-1.23463 1.9385,-1.43823 4.6529,-1.45754 2.8157,-0.02 3.2658,-0.17441 4.1842,-1.43509 0.9754,-1.339 1.2542,-1.41263 5.3495,-1.41263 4.0148,0 4.4598,-0.11075 6.2904,-1.56555 l 1.97,-1.56555 h 29.6336 29.6337 l 1.7037,1.43508 c 1.6126,1.35837 2.0263,1.44349 7.7373,1.59211 5.8236,0.15155 6.0741,0.20579 7.1951,1.55822 1.0199,1.23032 1.5416,1.40293 4.2782,1.41538 2.6748,0.0122 3.328,0.21665 4.6074,1.44242 1.2683,1.21513 1.9347,1.42824 4.4663,1.42824 2.5015,0 3.1513,0.20222 4.0793,1.26949 0.6517,0.74944 1.9537,1.41308 3.1785,1.62 1.1728,0.19815 2.5244,0.86786 3.1095,1.54069 0.5698,0.65533 1.9077,1.32977 2.9772,1.50079 1.142,0.18262 2.4134,0.852392 3.0857,1.625542 0.742,0.85339 1.6872,1.31494 2.6927,1.31494 1.1936,0 2.2775,0.71906 4.7197,3.1311 2.348,2.31895 3.5473,3.1311 4.624,3.1311 1.058,0 2.2543,0.78152 4.3936,2.87017 2.1466,2.09584 3.334,2.87018 4.401,2.87018 1.2165,0 3.8004,2.34018 15.4173,13.96304 12.124,12.13028 13.9558,14.17083 13.9558,15.54604 0,1.30109 0.7899,2.34923 4.4357,5.88601 3.659,3.5495 4.4358,4.58213 4.4358,5.8969 0,1.1178 0.4676,2.00421 1.5655,2.96763 1.1353,0.99615 1.5656,1.83889 1.5656,3.06602 0,1.17651 0.4771,2.18039 1.5655,3.29381 0.9831,1.00565 1.5656,2.14349 1.5656,3.05812 0,0.87897 0.5173,1.94264 1.3046,2.68223 0.7965,0.74832 1.3046,1.80174 1.3046,2.70497 0,0.93176 0.5795,2.08571 1.5656,3.11753 1.089,1.13958 1.5655,2.15974 1.5655,3.35174 0,1.30831 0.3703,1.97717 1.5656,2.82831 1.4585,1.03855 1.5655,1.34166 1.5655,4.43338 0,2.9183 0.1574,3.44241 1.3046,4.34484 1.2104,0.95203 1.3047,1.34958 1.3047,5.49914 0,4.22578 0.086,4.57145 1.5655,6.25599 l 1.5656,1.78306 v 7.41456 7.41456 l 1.5655,1.37374 1.5656,1.37375 v 16.50559 16.5056 l -1.5656,1.63819 -1.5655,1.63821 v 8.67684 8.67685 l -1.5656,1.78306 c -1.4898,1.69685 -1.5655,2.0087 -1.5655,6.44952 0,4.40171 -0.074,4.71496 -1.3047,5.52129 -1.1635,0.7624 -1.3046,1.21103 -1.3046,4.14955 0,3.25664 -0.091,3.46546 -2.3302,5.3468 -0.4405,0.37009 -0.8009,1.36003 -0.8009,2.19987 0,0.99285 -0.5476,2.08719 -1.5655,3.12852 -1.0291,1.05276 -1.5656,2.133 -1.5656,3.15254 0,1.00401 -0.4601,1.95106 -1.3046,2.68537 -0.9007,0.7831 -1.3046,1.66952 -1.3046,2.86269 0,1.2625 -0.422,2.10432 -1.5656,3.12325 -1.0816,0.96369 -1.5655,1.87886 -1.5655,2.96035 0,1.20514 -0.7292,2.32481 -3.1683,4.86489 -2.351,2.44831 -3.0866,3.55685 -2.8517,4.29724 0.2352,0.74085 -0.4943,1.83697 -2.8329,4.25684 -2.2996,2.37942 -3.1497,3.6468 -3.1497,4.69557 0,1.18059 -2.2027,3.6299 -12.3648,13.74877 -10.1914,10.14813 -12.6876,12.37283 -14.2015,12.65684 -1.354,0.254 -2.8167,1.33727 -5.5649,4.12137 -3.9784,4.03041 -5.2591,4.93663 -6.9767,4.93663 -0.5948,0 -1.5959,0.59172 -2.2248,1.31494 -0.6722,0.77315 -1.9436,1.44292 -3.0857,1.62554 -1.1029,0.17637 -2.41,0.84848 -3.0245,1.55523 -0.6704,0.77096 -1.6521,1.24464 -2.5795,1.24464 -0.8779,0 -2.3121,0.64757 -3.4672,1.56555 -1.0835,0.86105 -2.49,1.56555 -3.1255,1.56555 -0.6355,0 -1.8926,0.7045 -2.7936,1.56555 -1.0319,0.98606 -2.1858,1.56555 -3.1176,1.56555 -0.9032,0 -1.9566,0.50807 -2.7049,1.30462 -0.7484,0.79656 -1.8018,1.30463 -2.705,1.30463 -0.9318,0 -2.0857,0.57949 -3.1175,1.56555 -1.563,1.49362 -1.8465,1.56555 -6.1712,1.56555 -4.3788,0 -4.5805,0.0533 -5.9279,1.56555 l -1.3949,1.56555 h -6.1641 c -5.9246,0 -6.2081,0.0507 -7.2984,1.30462 l -1.1344,1.30463 h -25.775 -25.775 z m 33.9132,-103.86816 c 1.2658,-0.25193 2.3074,-2.25086 2.3074,-4.42824 0,-2.683 1.3038,-3.04787 10.437,-2.92059 4.4487,0.062 8.4996,-0.0829 9.0019,-0.32191 2.2168,-1.05507 0.9255,-3.4861 -5.7843,-10.88974 -2.5496,-2.81328 -2.6412,-4.01785 -0.3874,-5.09805 1.9674,-0.94295 10.3443,-1.57137 21.3899,-1.60462 8.2959,-0.025 8.9537,-0.10043 10.9589,-1.25719 1.1733,-0.67685 3.272,-1.38004 4.6637,-1.56266 1.5696,-0.20594 3.1205,-0.82851 4.0844,-1.63954 0.8546,-0.71914 1.9468,-1.31099 2.4271,-1.31522 0.4803,-0.004 1.4603,-0.35102 2.1778,-0.77064 0.7176,-0.41962 2.4882,-1.33072 3.9348,-2.02466 1.4465,-0.69395 2.943,-1.63874 3.3254,-2.09954 0.3825,-0.4608 1.1232,-0.83782 1.6462,-0.83782 0.523,0 2.7151,-1.4677 4.8713,-3.26156 5.2069,-4.33172 7.6628,-6.13174 8.3662,-6.13174 0.6436,0 23.2571,-22.5092 23.2571,-23.14984 0,-0.22167 0.587,-1.17275 1.3046,-2.1135 0.7175,-0.94075 1.3065,-1.92312 1.3088,-2.18304 0,-0.25993 1.3997,-1.95368 3.1054,-3.76391 1.7056,-1.81022 3.253,-3.76963 3.4385,-4.35424 0.4474,-1.40949 3.0073,-5.17428 4.3359,-6.37667 0.5827,-0.5273 1.2034,-1.61452 1.3795,-2.41605 0.176,-0.80153 0.7958,-1.88786 1.3773,-2.41408 0.5814,-0.52621 1.3853,-1.66602 1.7864,-2.5329 0.401,-0.86688 1.0191,-1.97584 1.3735,-2.46435 0.8302,-1.14441 0.1151,-1.87209 -1.0397,-1.05806 -0.4886,0.34434 -1.6332,0.96221 -2.5437,1.37304 -0.9105,0.41084 -2.0529,1.35367 -2.5388,2.09519 -0.4858,0.74151 -1.1906,1.34821 -1.5661,1.34821 -0.3755,0 -1.3877,0.59317 -2.2493,1.31816 -0.8615,0.72499 -2.3473,1.58015 -3.3015,1.90037 -0.9543,0.32022 -2.1706,0.95992 -2.7029,1.42155 -0.8413,0.72968 -3.1695,0.85104 -17.8201,0.92887 -14.1111,0.075 -17.108,0.22173 -18.424,0.90226 -0.8644,0.447 -1.6625,1.08533 -1.7736,1.4185 -0.111,0.33318 -1.5421,0.78764 -3.1802,1.00994 -2.0235,0.27459 -3.4923,0.83673 -4.5819,1.75353 -0.9244,0.77782 -2.2498,1.34937 -3.1291,1.34937 -0.8391,0 -1.9497,0.42417 -2.4681,0.9426 -2.063,2.06293 -6.0472,4.79775 -6.9896,4.79775 -0.549,0 -1.6307,0.67755 -2.4038,1.50567 -0.7731,0.82812 -1.9927,1.68217 -2.7103,1.89788 -0.7175,0.21572 -1.9684,0.94716 -2.7797,1.62543 -0.8114,0.67827 -1.7824,1.23322 -2.1579,1.23322 -0.3755,0 -1.0557,0.56927 -1.5116,1.26505 -0.4559,0.69577 -1.3635,1.43241 -2.0169,1.63695 -0.6535,0.20455 -1.8519,0.92686 -2.6632,1.60513 -0.8114,0.67827 -1.7914,1.23322 -2.1779,1.23322 -0.3864,0 -1.3665,0.54956 -2.1778,1.22124 -0.8113,0.67167 -2.2869,1.49832 -3.2791,1.83698 -0.9923,0.33866 -2.3302,1.11005 -2.9733,1.71421 -0.6431,0.60415 -1.9169,1.18551 -2.8308,1.29191 -0.9138,0.1064 -2.2064,0.78153 -2.8726,1.50028 -0.7417,0.80038 -1.7825,1.30683 -2.6855,1.30683 -1.4166,0 -3.6517,1.1686 -4.4242,2.31321 -0.2031,0.30097 -2.2103,0.63083 -4.4604,0.73301 -5.1046,0.23181 -5.8856,-0.35288 -4.8129,-3.60324 0.5988,-1.81434 0.5699,-2.46775 -0.2202,-4.97404 -0.5002,-1.58693 -1.5578,-3.61091 -2.3502,-4.49774 -1.2079,-1.35196 -1.9146,-1.65171 -4.3744,-1.85571 -3.7951,-0.31472 -5.5192,0.14648 -6.0821,1.62703 -0.2497,0.65674 -1.0873,2.11788 -1.8614,3.24699 -1.2798,1.86665 -1.3799,2.35706 -1.1043,5.40495 0.1911,2.11295 0.091,3.60795 -0.2714,4.04434 -0.9505,1.1452 -3.8151,0.7863 -6.9699,-0.87325 -1.9378,-1.01931 -3.7417,-1.56555 -5.1701,-1.56555 -1.4904,0 -2.733,-0.39772 -3.8749,-1.24017 -0.9246,-0.68209 -2.6437,-1.39412 -3.8205,-1.58228 -1.1767,-0.18817 -3.1077,-0.90954 -4.2912,-1.60305 -1.1835,-0.69351 -3.1348,-1.41809 -4.3363,-1.61018 -1.2844,-0.20535 -2.6658,-0.86155 -3.3525,-1.59251 -0.7175,-0.76369 -1.7606,-1.24326 -2.7042,-1.24326 -0.9627,0 -2.2018,-0.58442 -3.3192,-1.56555 -0.9807,-0.86105 -2.1637,-1.56555 -2.6289,-1.56555 -0.4652,0 -1.6155,-0.58708 -2.5563,-1.30462 -0.9407,-0.71755 -1.917,-1.30463 -2.1694,-1.30463 -0.2525,0 -1.1096,-0.67906 -1.9048,-1.50901 -0.7951,-0.82996 -2.1541,-1.65068 -3.0198,-1.82382 -0.8657,-0.17315 -2.2732,-0.90309 -3.1277,-1.62209 -0.8544,-0.719 -1.9872,-1.30728 -2.5172,-1.30728 -0.53,0 -1.6771,-0.60038 -2.5492,-1.33419 -0.8721,-0.7338 -2.4752,-1.46565 -3.5625,-1.62633 -1.0873,-0.16068 -2.7989,-0.82503 -3.8034,-1.47633 -1.2698,-0.82326 -2.9744,-1.28251 -5.5927,-1.50681 -2.0714,-0.17745 -5.2417,-0.67048 -7.045,-1.09565 -4.1648,-0.98189 -8.6803,-0.98329 -12.6721,-0.004 -1.7221,0.42253 -6.905,0.92368 -11.5176,1.1137 l -8.3864,0.34546 -1.3183,-1.42171 c -0.8786,-0.94746 -2.0482,-1.5196 -3.5063,-1.71518 -1.8437,-0.24729 -2.568,-0.73815 -4.6016,-3.11854 -1.9293,-2.25826 -2.6842,-2.79358 -3.7627,-2.66822 -1.232,0.14322 -1.3448,0.35624 -1.2983,2.45359 0.041,1.83826 0.3213,2.49372 1.4053,3.28339 1.5696,1.14335 7.1544,8.40184 7.1544,9.29843 0,0.70607 5.8799,6.83886 19.1326,19.95556 8.4669,8.3799 12.2898,11.62391 17.7455,15.05817 0.9092,0.57237 2.0301,1.61593 2.4908,2.319 0.4607,0.70308 1.251,1.27832 1.7564,1.27832 1.171,0 6.2445,3.25147 7.1983,4.61327 0.4039,0.57657 1.6244,1.18642 2.7579,1.37791 1.1209,0.18938 2.5591,0.90313 3.2049,1.59056 0.7346,0.78199 2.0515,1.379 3.5312,1.6009 1.2979,0.19462 3.1774,0.90872 4.1767,1.58689 1.1863,0.805 2.5616,1.23136 3.962,1.22824 1.1798,-0.003 4.7282,0.44887 7.8854,1.00335 9.422,1.65471 14.7846,2.13253 23.9338,2.13253 h 8.6819 v 1.30463 c 0,0.81439 -0.7438,2.04839 -1.9794,3.28394 -1.0886,1.08863 -2.2842,2.71548 -2.6569,3.61523 -0.3727,0.89975 -1.1258,2.04152 -1.6736,2.53728 -1.2252,1.10878 -1.2782,2.69399 -0.1324,3.9601 1.0113,1.11744 6.0885,1.30026 11.5403,0.41553 4.1785,-0.6781 5.339,-0.15255 5.339,2.41794 0,4.16391 2.1195,5.50372 8.0886,5.11307 2.2962,-0.15027 4.663,-0.37037 5.2595,-0.4891 z"
       id="path6" />
    <path
       style="fill:#ffffff;stroke-width:0.52185"
       d="m 1427.2813,513.9682 c -1.0708,-1.13007 -2.274,-2.83735 -2.6737,-3.79401 -0.3997,-0.9567 -1.1926,-2.16098 -1.7619,-2.6762 -0.5693,-0.51522 -1.1941,-1.802 -1.3885,-2.85958 -0.1944,-1.05753 -0.8937,-2.50989 -1.554,-3.22744 -0.6604,-0.71754 -1.3501,-2.14767 -1.5327,-3.17811 -0.1827,-1.0304 -0.9157,-2.4216 -1.6288,-3.0916 -0.7573,-0.71144 -1.2966,-1.80164 -1.2966,-2.62094 0,-0.77302 -0.7029,-2.28727 -1.5656,-3.37282 -0.861,-1.08352 -1.5655,-2.50676 -1.5655,-3.16282 0,-0.65605 -0.5567,-1.85664 -1.2371,-2.66795 -0.6804,-0.81132 -1.4159,-2.2947 -1.6345,-3.29639 -0.2186,-1.00169 -0.9244,-2.52811 -1.5684,-3.39202 -0.644,-0.86393 -1.3334,-2.47991 -1.5321,-3.59108 -0.1987,-1.11118 -0.9696,-3.22467 -1.7131,-4.69665 -0.7435,-1.47199 -1.6477,-3.26342 -2.0092,-3.98097 -2.1588,-4.28466 -5.3016,-9.39743 -6.8173,-11.09081 -0.9642,-1.07715 -1.7531,-2.29195 -1.7531,-2.69958 0,-0.89888 -2.7874,-3.75786 -4.9491,-5.07613 -1.9254,-1.17414 -4.8115,-1.23368 -7.4343,-0.15335 -1.5618,0.64334 -2.613,1.79992 -5.0986,5.60989 -1.7221,2.6397 -3.3284,5.50395 -3.5695,6.36501 -0.6746,2.40889 -1.3143,2.87017 -3.9803,2.87017 -2.7847,0 -3.8677,-0.84698 -4.422,-3.45815 -0.1905,-0.89742 -0.9211,-2.41074 -1.6236,-3.36294 -0.7025,-0.9522 -1.2773,-2.25334 -1.2773,-2.89141 0,-1.37652 -5.3688,-7.79634 -7.4104,-8.86105 -1.7254,-0.89981 -4.5623,-0.94209 -7.3415,-0.10941 -2.3677,0.70936 -8.0822,5.99848 -9.5513,8.84022 -0.9084,1.75721 -3.3379,5.032 -5.0509,6.80834 -0.5022,0.52085 -0.9132,1.50851 -0.9132,2.19481 0,1.23388 -3.3937,5.8404 -4.9404,6.70597 -0.44,0.24623 -0.7999,1.12699 -0.7999,1.95725 0,1.10075 -0.8455,2.47162 -3.1221,5.0621 -1.8782,2.13729 -3.1256,4.03574 -3.1311,4.76545 -0.01,0.74423 -1.0944,2.3574 -2.818,4.1748 -1.6593,1.7496 -2.9567,3.65125 -3.17,4.64612 -0.2476,1.15543 -1.9463,3.3234 -5.4102,6.90517 l -5.0491,5.22095 -2.8702,-0.26661 c -1.8192,-0.16898 -3.109,-0.58426 -3.5225,-1.13409 -1.0225,-1.35983 -0.8754,-11.76909 0.1956,-13.84016 0.4663,-0.90179 1.066,-2.35783 1.3327,-3.23564 0.663,-2.18249 1.4683,-40.03075 0.9865,-46.36487 -0.3391,-4.45901 -0.5816,-5.38167 -1.9083,-7.25973 -1.8922,-2.67884 -6.1141,-5.63587 -8.0466,-5.63587 -0.8004,0 -2.4773,0.58425 -3.7264,1.29834 -1.2491,0.71409 -2.8766,1.30117 -3.6167,1.30462 -0.7401,0.003 -2.384,0.68621 -3.653,1.51723 -2.6971,1.76615 -7.2667,2.62035 -8.1623,1.52576 -0.3118,-0.38112 -0.6449,-3.61048 -0.7461,-7.23513 -0.1405,-5.02669 -0.3869,-6.85781 -1.0612,-7.8864 -0.483,-0.7368 -1.2356,-2.70815 -1.6723,-4.38076 -0.5903,-2.26042 -1.338,-3.58505 -2.9125,-5.15986 l -2.1183,-2.11873 h -4.588 c -4.2433,0 -4.7161,0.10781 -6.2949,1.43509 -0.9492,0.79796 -2.3393,1.43509 -3.1312,1.43509 -0.7833,0 -2.2199,0.58708 -3.1924,1.30463 -0.9726,0.71754 -2.2811,1.30462 -2.9077,1.30462 -0.6266,0 -1.4616,0.39022 -1.8556,0.86715 -0.3939,0.47694 -1.9991,1.43543 -3.567,2.12998 -1.568,0.69455 -3.1664,1.71333 -3.5521,2.26395 -0.3857,0.55061 -1.2034,1.00112 -1.8172,1.00112 -0.6139,0 -1.733,0.59104 -2.487,1.31342 -1.3439,1.28752 -3.9122,2.82435 -8.0869,4.83897 -1.1521,0.556 -2.4137,1.39525 -2.8036,1.86499 -0.3898,0.46974 -1.2348,0.85407 -1.8778,0.85407 -0.6429,0 -2.0224,0.67822 -3.0654,1.50715 -1.0431,0.82893 -2.6817,1.65444 -3.6413,1.83447 -0.9596,0.18002 -2.2929,0.9108 -2.9628,1.62395 -0.7115,0.75728 -1.8017,1.29663 -2.621,1.29663 -0.773,0 -2.2873,0.70286 -3.3728,1.56555 -1.2324,0.97936 -2.5782,1.56655 -3.5943,1.56822 -0.8933,0.001 -2.5636,0.58123 -3.7116,1.28834 -4.9471,3.04701 -8.4259,0.44704 -5.2185,-3.90026 0.7175,-0.97258 1.3046,-2.30161 1.3046,-2.9534 0,-0.65179 0.7045,-1.98746 1.5656,-2.96815 0.8752,-0.9969 1.5655,-2.37741 1.5655,-3.1311 0,-0.75368 0.6903,-2.13419 1.5656,-3.1311 0.861,-0.98068 1.5655,-2.24814 1.5655,-2.81657 0,-0.93277 0.668,-1.97611 4.1514,-6.48358 0.5919,-0.76596 1.2241,-2.13216 1.4049,-3.03597 0.1808,-0.90383 0.8768,-2.0025 1.5469,-2.44151 0.7381,-0.48364 1.3559,-1.54939 1.5676,-2.70437 0.1922,-1.04839 1.0205,-2.67755 1.8406,-3.62035 0.8201,-0.94279 1.4912,-2.02596 1.4912,-2.40703 0,-0.38107 0.7045,-1.57935 1.5655,-2.66285 0.8611,-1.08349 1.5656,-2.37202 1.5656,-2.8634 0,-0.49138 0.7002,-1.92679 1.556,-3.18981 0.8558,-1.26301 1.5603,-2.79309 1.5656,-3.40017 0.01,-0.60709 0.5136,-1.74467 1.1297,-2.52797 0.6162,-0.7833 1.3212,-2.4996 1.5667,-3.814 0.2456,-1.3144 0.7685,-2.75997 1.1621,-3.21238 1.2052,-1.3853 1.8279,-4.22918 2.1797,-9.95494 0.3189,-5.18885 0.2711,-5.57629 -0.8995,-7.3059 -2.1291,-3.14575 -4.0141,-3.7703 -10.466,-3.46758 -4.7317,0.22201 -5.7617,0.12707 -6.6582,-0.61368 -1.0172,-0.84053 -1.0317,-1.04018 -0.3539,-4.88897 0.3886,-2.20696 1.0952,-4.60574 1.5702,-5.33061 1.3107,-2.00051 0.9906,-4.37651 -1.128,-8.37235 -1.3776,-2.59819 -2.44,-3.90627 -3.7488,-4.61587 -1.0046,-0.54461 -2.308,-1.43437 -2.8964,-1.97724 -0.5974,-0.55114 -2.4411,-1.20433 -4.1748,-1.47909 -1.7077,-0.27062 -4.5139,-1.00777 -6.236,-1.63809 -3.0857,-1.12941 -3.4114,-1.14091 -22.4396,-0.79251 -18.1776,0.33284 -19.4148,0.41621 -21.1246,1.42347 -1.5501,0.91322 -3.0104,1.11137 -9.9703,1.3529 -7.8346,0.27187 -8.1979,0.23912 -9.2731,-0.83606 -0.6155,-0.61546 -1.119,-1.61026 -1.119,-2.21066 0,-1.58938 6.4475,-7.64898 8.8177,-8.28721 1.1109,-0.29913 2.8577,-1.48789 4.2078,-2.86352 1.4621,-1.48979 3.2282,-2.6576 4.8175,-3.18547 1.38,-0.45836 2.5091,-1.00783 2.5091,-1.22103 0,-0.82865 5.425,-4.74698 6.5723,-4.74698 0.6673,0 1.7511,-0.57211 2.4085,-1.27134 2.2918,-2.43764 5.2618,-4.46901 6.5339,-4.46901 0.8207,0 2.4214,-1.03172 4.4529,-2.87018 1.7444,-1.5786 3.4315,-2.87018 3.7491,-2.87018 1.179,0 6.372,-4.40141 12.3011,-10.42584 6.5231,-6.62805 6.7739,-7.08512 6.7739,-12.34669 0,-2.6308 -0.1567,-2.97783 -2.435,-5.39178 -1.3393,-1.419 -3.0895,-2.72375 -3.8894,-2.89943 -0.7999,-0.17568 -1.9937,-0.74284 -2.653,-1.26036 -0.6593,-0.51751 -2.198,-1.10922 -3.4194,-1.3149 -2.7194,-0.45793 -3.7805,-1.81266 -3.7805,-4.82654 0,-2.02953 0.1905,-2.35271 2.162,-3.6673 3.358,-2.23916 4.2938,-2.73027 5.2181,-2.73856 0.9873,-0.009 6.3419,-5.61019 7.4953,-7.84071 0.9619,-1.86018 0.6526,-2.75489 -2.6188,-7.57542 -3.2247,-4.75153 -3.8178,-5.39635 -5.9944,-6.51693 -1.0046,-0.51717 -2.9625,-2.03434 -4.351,-3.37147 -1.3884,-1.33714 -4.089,-3.28449 -6.0013,-4.32743 -1.9122,-1.04295 -3.7607,-2.28606 -4.1077,-2.76247 -0.3471,-0.47642 -2.4606,-1.7334 -4.6967,-2.79329 -6.7177,-3.18411 -9.2157,-4.56228 -10.6174,-5.85768 -0.7332,-0.67768 -1.958,-1.23215 -2.7217,-1.23215 -0.839,0 -2.0223,-0.61957 -2.99,-1.56555 -1.0057,-0.98305 -2.1435,-1.56555 -3.0582,-1.56555 -0.8744,0 -1.9408,-0.5154 -2.668,-1.28948 -0.6662,-0.70922 -2.0575,-1.56005 -3.0916,-1.89075 -1.0341,-0.3307 -2.3498,-1.0195 -2.9239,-1.53068 -0.574,-0.51117 -1.8656,-1.31675 -2.8701,-1.79018 -3.2365,-1.52528 -5.3226,-2.79748 -6.7215,-4.09912 -0.752,-0.69967 -2.0717,-1.49712 -2.9328,-1.77211 -2.0688,-0.66072 -2.1115,-2.50183 -0.093,-4.00964 1.4467,-1.08056 1.9912,-1.10463 30.7892,-1.36094 26.7088,-0.23772 29.4927,-0.34371 31.2984,-1.19161 1.09,-0.51188 3.6043,-1.1344 5.5871,-1.38338 2.2268,-0.27959 4.1935,-0.87153 5.1436,-1.54809 0.8461,-0.60249 1.9385,-1.09542 2.4275,-1.09542 0.489,0 2.0379,-1.15483 3.4419,-2.5663 l 2.5529,-2.56629 v -6.18402 c 0,-5.7364 -0.094,-6.32298 -1.3047,-8.10394 -0.7175,-1.05596 -1.3046,-2.36976 -1.3046,-2.91956 0,-0.54979 -0.7156,-1.90013 -1.5903,-3.00074 -1.0343,-1.30155 -1.536,-2.46684 -1.4351,-3.33332 l 0.1552,-1.33221 8.9141,-0.26092 c 8.7797,-0.25699 8.943,-0.28298 10.829,-1.72299 1.0531,-0.80413 2.2668,-2.14276 2.697,-2.97472 1.206,-2.33212 0.9991,-6.64023 -0.4513,-9.3964 -0.6785,-1.28929 -1.3911,-3.21108 -1.5835,-4.27064 -0.2202,-1.21238 -0.86,-2.29805 -1.726,-2.92889 -0.987,-0.71901 -1.4196,-1.55443 -1.5299,-2.9548 -0.097,-1.22712 -0.6034,-2.36913 -1.3642,-3.07425 -0.6658,-0.61702 -2.0061,-2.53001 -2.9784,-4.2511 -0.9724,-1.72108 -2.4317,-3.90062 -3.243,-4.84341 -0.8455,-0.98259 -1.4751,-2.3265 -1.4751,-3.14893 0,-1.04762 -0.7744,-2.19958 -2.8702,-4.26927 -2.0429,-2.017612 -2.8701,-3.232842 -2.8701,-4.216582 0,-0.95942 -0.8778,-2.31025 -2.8702,-4.41729 -1.956,-2.06847 -2.8702,-3.46489 -2.8702,-4.38419 0,-0.95195 -0.918,-2.26812 -3.1193,-4.47199 -2.4591,-2.46212 -3.1217,-3.46677 -3.1311,-4.74729 -0.01,-0.98012 -0.592,-2.35442 -1.475,-3.46545 -2.0365,-2.56264 -3.0828,-5.83671 -2.2038,-6.89592 0.9547,-1.1503 2.7356,-0.98809 5.5436,0.50493 1.4836,0.78884 3.3113,1.30463 4.6229,1.30463 1.4688,0 2.716,0.40341 3.8626,1.24934 0.9313,0.68713 2.7063,1.40123 3.9443,1.58688 1.3991,0.20981 2.7072,0.82322 3.4566,1.62084 0.722,0.76863 1.7896,1.28329 2.662,1.28329 0.8741,0 2.1693,0.62594 3.2395,1.56555 1.3736,1.20603 2.2845,1.56555 3.9668,1.56555 1.5325,0 2.7003,0.39392 3.9155,1.32082 0.9524,0.72646 2.6393,1.4319 3.7486,1.56764 1.1995,0.14679 2.3946,0.70171 2.9488,1.36931 0.5914,0.71234 1.8697,1.27074 3.4983,1.52819 1.4115,0.22312 3.4536,1.00864 4.5381,1.74558 1.2973,0.88153 2.6892,1.34316 4.0686,1.3494 1.4545,0.007 2.8002,0.48616 4.3931,1.56555 2.2622,1.53288 2.3993,1.55606 9.2064,1.55606 h 6.91 l 2.6802,-2.40972 c 1.4741,-1.32535 2.9672,-2.91047 3.318,-3.52249 0.4064,-0.70895 0.7325,-4.51639 0.8988,-10.49181 0.2568,-9.23294 0.2802,-9.38866 1.5002,-9.99576 1.328,-0.66085 3.7714,-0.13734 5.2838,1.13208 0.4305,0.36136 1.6966,0.90542 2.8135,1.20902 1.1168,0.3036 2.6033,1.09015 3.3032,1.74788 1.0698,1.0052 1.9555,1.22448 5.5551,1.3753 l 4.2824,0.17943 2.199,-2.38563 c 1.9759,-2.14368 2.199,-2.65165 2.199,-5.00844 0,-1.62579 0.3967,-3.36303 1.0437,-4.57012 0.8488,-1.58375 1.0406,-2.92305 1.0273,-7.17354 -0.014,-4.476369 -0.2004,-5.600606 -1.2998,-7.835481 -1.2037,-2.44697 -1.2838,-3.138996 -1.2883,-11.12685 -0.01,-8.297358 -0.041,-8.579454 -1.4067,-10.909723 -1.3032,-2.223843 -1.417,-2.909533 -1.6177,-9.747151 -0.1933,-6.5855428 -0.3469,-7.5831338 -1.4683,-9.5353538 -1.1039,-1.92166699 -1.2524,-2.829754 -1.2524,-7.654606 0,-3.010855 0.1425,-5.8457372 0.3167,-6.2997382 0.5585,-1.455469 2.0768,-0.890285 4.4414,1.653332 1.2673,1.3633332 5.2839,5.6271792 8.9257,9.4752122 4.019,4.246676 6.7465,7.566015 6.9397,8.445684 0.1872,0.852187 2.5224,3.7746078 5.6684,7.0935258 2.9425,3.104345 6.9089,7.75776 8.8143,10.340917 4.3583,5.908887 9.3408,10.942929 12.3821,12.51017 1.2916,0.665583 3.4592,2.189844 4.8169,3.387245 2.0852,1.838984 2.8956,2.212326 5.2185,2.403923 1.5125,0.124748 3.5762,0.09739 4.586,-0.06079 2.338,-0.36624 6.2526,-3.958191 6.2526,-5.737225 0,-0.685977 0.7045,-2.049607 1.5656,-3.030294 0.9081,-1.034312 1.5655,-2.371501 1.5655,-3.184355 0,-1.465052 2.9191,-5.479723 3.9965,-5.49649 0.8908,-0.01386 6.8859,6.196505 7.7712,8.050215 1.1641,2.43764 4.8976,6.552177 5.9454,6.552177 0.513,0 1.5299,0.469665 2.2596,1.0437 1.5576,1.225231 3.0771,1.322483 4.9956,0.319743 0.7618,-0.398177 2.0015,-0.96679 2.7547,-1.263592 0.9743,-0.383894 1.9396,-1.693294 3.3448,-4.537001 1.0863,-2.198549 2.496,-4.338708 3.1328,-4.755906 0.7571,-0.496097 1.2771,-1.519607 1.5029,-2.958185 0.2072,-1.320364 0.7853,-2.536927 1.4463,-3.04343 0.7743,-0.593359 1.2214,-1.73011 1.5064,-3.829993 0.2486,-1.832512 0.9242,-3.735084 1.7485,-4.924605 0.8913,-1.286123 1.3433,-2.634526 1.3433,-4.00708 0,-1.372838 0.4607,-2.7465918 1.3695,-4.0840798 0.8699,-1.2801 1.4958,-3.085973 1.7155,-4.949728 0.2196,-1.86252899 0.8068,-3.55764699 1.6077,-4.64084 1.006,-1.360646 1.248,-2.291235 1.1941,-4.591485 -0.058,-2.496218 0.1381,-3.119179 1.4586,-4.6230982 1.2773,-1.454798 1.5261,-2.190115 1.5261,-4.510859 0,-2.28098 0.2427,-3.026031 1.3683,-4.200975 1.0754,-1.122401 1.4442,-2.161099 1.7226,-4.850537 0.2634,-2.545269 0.6467,-3.694772 1.4955,-4.485564 0.6277,-0.584801 1.2755,-1.702565 1.4396,-2.483919 0.4801,-2.286128 1.0348,-2.975566 2.5382,-3.154364 2.0905,-0.248626 2.7669,0.638366 3.0228,3.964182 0.1632,2.121563 0.6351,3.57663 1.6273,5.017798 1.3464,1.955617 1.3975,2.287529 1.3975,9.086527 0,6.7506 0.062,7.1606412 1.423,9.4509402 1.3553,2.280094 1.4323,2.77959 1.6161,10.482849 0.1809,7.5772548 0.2724,8.1937068 1.4472,9.7498688 1.0757,1.425008 1.254,2.241651 1.254,5.743796 0,4.647591 0.5785,7.152716 2.0148,8.725463 0.6356,0.695975 1.082,2.129148 1.2336,3.960774 0.1871,2.258984 0.6875,3.536927 2.3499,6.001275 3.2522,4.820944 4.3487,5.638302 7.909,5.895841 5.518,0.399131 11.1186,-1.6957 14.1606,-5.296575 1.0245,-1.212769 5.6723,-2.46607 6.8557,-1.848674 1.4652,0.764468 3.6457,5.266855 4.1113,8.489158 0.2724,1.885293 0.8532,3.501776 1.509,4.199891 0.5864,0.624216 1.2159,1.88336 1.3989,2.79809 0.2046,1.02333 1.207,2.46918 2.6056,3.75833 l 2.273,2.09516 h 4.8678 c 4.3729,0 5.0476,-0.13264 6.6362,-1.30462 0.9726,-0.71754 2.2165,-1.30463 2.7644,-1.30463 0.5479,0 2.2048,-1.09067 3.682,-2.42372 1.4773,-1.33304 3.4522,-2.746463 4.3887,-3.140924 0.979,-0.412355 8.96,-7.956485 18.7763,-17.748484 19.5248,-19.476413 25.1301,-24.4034108 27.3972,-24.0815158 1.0988,0.156031 1.1749,0.411678 1.1371,3.8201718 -0.031,2.788335 -0.3085,4.085257 -1.1722,5.479425 -0.8375,1.351638 -1.1322,2.655742 -1.1336,5.016283 0,2.756965 -0.2144,3.457121 -1.5675,5.159792 -1.2971,1.632175 -1.5656,2.446746 -1.5656,4.75025 0,2.345043 -0.245,3.059377 -1.5655,4.563323 -1.3315,1.516527 -1.5656,2.209914 -1.5656,4.638604 0,2.322624 -0.2435,3.118263 -1.3046,4.263259 -1.5165,1.636292 -1.4259,1.352902 -1.5646,4.898006 -0.084,2.13758 -0.4054,3.08056 -1.4249,4.1748 -1.0274,1.10285 -1.379,2.14681 -1.5998,4.75008 -0.1988,2.34456 -0.6405,3.81851 -1.4857,4.95757 -1.0393,1.40076 -1.2761,2.61367 -1.743,8.92691 -0.6649,8.9899 -0.3142,13.20484 1.2664,15.22091 1.4314,1.82579 7.0817,4.86462 9.0512,4.86789 0.8007,0.001 2.3271,-0.43767 3.392,-0.97556 1.0649,-0.53788 3.7434,-1.14381 5.9523,-1.3465 2.2416,-0.20569 4.8844,-0.81119 5.9812,-1.37035 3.8776,-1.97696 4.8374,-0.84418 2.7505,3.24645 -0.5946,1.16561 -1.3032,3.49807 -1.5746,5.18325 -0.2714,1.68518 -0.9782,3.885602 -1.5707,4.889822 -0.8933,1.51392 -1.0923,2.80712 -1.1651,7.56941 l -0.088,5.74355 2.2307,2.22974 2.2308,2.22974 9.1785,-0.11358 c 9.0334,-0.11179 9.2071,-0.13536 10.9832,-1.48999 1.4504,-1.10627 2.6119,-1.4458 5.9183,-1.72994 3.3011,-0.28369 4.3718,-0.59605 5.4206,-1.58127 1.2114,-1.13811 2.4811,-1.41031 7.4057,-1.5876 0.3168,-0.0114 1.2096,-0.60782 1.9838,-1.32537 1.1667,-1.08123 1.9283,-1.30462 4.448,-1.30462 2.1228,0 3.245,-0.24662 3.7185,-0.81719 1.2933,-1.55825 3.5631,-2.31391 6.9505,-2.31391 2.9242,0 3.6067,-0.19278 5.0813,-1.43509 1.4289,-1.20386 2.3813,-1.49329 5.9108,-1.79632 2.3142,-0.19867 5.0674,-0.51549 6.1184,-0.70403 1.6166,-0.29 2.0033,-0.17013 2.5109,0.77835 0.508,0.94917 0.355,1.49115 -0.9976,3.53322 -0.8787,1.32663 -1.5977,2.79911 -1.5977,3.27218 0,0.47307 -0.5284,1.33451 -1.1742,1.91432 -4.9046,4.40351 -18.9549,19.50906 -21.0401,22.62037 -1.4155,2.11197 -4.8842,6.2042 -7.7083,9.09386 -2.8241,2.88965 -5.4916,6.07583 -5.9278,7.08039 -0.4362,1.00456 -2.059,3.31296 -3.6062,5.12977 -1.5473,1.81682 -2.8133,3.72252 -2.8133,4.23489 0,0.51237 -0.516,1.58769 -1.1468,2.38959 -0.7803,0.9919 -1.2152,2.40171 -1.3604,4.40993 -0.206,2.84785 -0.1351,3.04272 2.0101,5.52689 2.1255,2.46123 2.3668,2.58807 5.4632,2.87183 2.2015,0.20175 3.7032,0.66157 4.6865,1.43509 1.2229,0.96191 2.1174,1.13821 5.7751,1.13821 3.2365,0 4.5347,0.20656 5.1471,0.81902 0.997,0.99698 0.4483,2.27428 -1.5352,3.57392 -1.5204,0.99619 -8.7135,8.28294 -10.6365,10.77494 -2.3767,3.08002 -3.2946,7.46863 -2.0887,9.98683 0.3157,0.6593 1.6134,2.02063 2.8838,3.02519 1.2703,1.00456 3.0978,2.47227 4.061,3.26156 1.3449,1.10206 2.3064,1.43509 4.1431,1.43509 1.9133,0 2.7484,0.31314 4.1748,1.56555 1.6558,1.45382 2.0741,1.56555 5.8609,1.56555 3.5623,0 4.3304,0.175 6.0752,1.38419 1.8612,1.28975 2.4683,1.39953 8.8995,1.60916 6.1277,0.19974 7.1071,0.36068 8.7286,1.43426 1.6108,1.06645 2.711,1.25225 9.3153,1.57323 6.7102,0.32612 7.6808,0.49427 9.3357,1.61729 1.616,1.09667 2.442,1.25332 6.6081,1.25332 4.5838,0 4.8631,0.0686 7.494,1.84034 1.503,1.01219 2.7327,2.1947 2.7327,2.62779 0,0.43333 -1.0302,1.22907 -2.2908,1.76943 -1.2599,0.54008 -2.4353,1.2158 -2.612,1.5016 -0.1766,0.28579 -1.3179,0.68166 -2.5362,0.87972 -1.2184,0.19804 -2.8023,0.89647 -3.5198,1.55206 -0.9389,0.85784 -2.1306,1.25585 -4.251,1.41977 -2.2195,0.17159 -3.356,0.57236 -4.6063,1.62444 -1.3415,1.12881 -2.1888,1.39665 -4.4182,1.39665 -2.2791,0 -3.1006,0.27197 -4.7283,1.56555 -1.3719,1.09025 -2.5452,1.56555 -3.8645,1.56555 -1.1228,0 -2.6347,0.49843 -3.7117,1.22361 -0.9994,0.67298 -2.9913,1.38044 -4.4264,1.57212 -1.7725,0.23675 -2.8798,0.70609 -3.453,1.46357 -0.5965,0.78822 -1.706,1.23205 -3.7854,1.51423 -1.9874,0.26969 -3.4617,0.83688 -4.5452,1.74855 -0.8849,0.74458 -2.2552,1.34937 -3.0574,1.34937 -0.8296,0 -2.2995,0.67215 -3.4237,1.56555 -1.0935,0.86895 -2.5987,1.56555 -3.3829,1.56555 -0.7771,0 -1.8552,0.48867 -2.3957,1.08594 -0.5405,0.59726 -2.2692,1.71271 -3.8414,2.47878 -5.6225,2.73945 -8.3526,6.8211 -8.3724,12.51701 -0.011,3.18734 0.071,3.39157 2.4673,6.17333 3.3895,3.93389 11.2936,10.62149 12.5535,10.62149 1.2038,0 2.7764,1.26347 3.9812,3.19855 0.7998,1.28459 0.7949,1.39702 -0.078,1.7634 -0.5126,0.21524 -3.5151,0.508 -6.6723,0.65059 -4.6614,0.21052 -6.203,0.4921 -8.2018,1.49816 -1.3538,0.6814 -3.1061,1.23891 -3.8941,1.23891 -0.9809,0 -2.1383,0.69251 -3.6703,2.19605 -2.1637,2.12349 -2.2376,2.30405 -2.2376,5.46466 v 3.26861 l 3.5225,4.10507 c 1.9373,2.25779 4.4618,4.83649 5.6099,5.73044 1.148,0.89396 5.2901,4.74801 9.2045,8.56456 6.5777,6.41327 8.072,7.63651 11.9824,9.80936 0.7749,0.43052 3.351,2.66143 5.7248,4.95757 2.3738,2.29614 5.0862,4.91846 6.0276,5.82739 0.9414,0.90892 2.1642,1.79622 2.7173,1.97178 1.2525,0.39753 5.3086,5.74397 5.3086,6.99743 0,0.50851 -0.7231,1.61429 -1.6068,2.45728 l -1.6069,1.53272 -10.2652,-0.15713 c -9.4661,-0.14489 -10.4075,-0.24516 -12.0918,-1.28785 -1.6874,-1.04463 -2.7205,-1.15314 -13.5681,-1.42519 -11.0108,-0.27614 -11.8604,-0.36797 -13.651,-1.47539 -1.693,-1.04705 -2.6691,-1.19304 -8.6106,-1.28785 -5.9473,-0.0949 -7.0532,0.0309 -9.8321,1.11835 -5.175,2.02511 -5.4863,2.27149 -6.9189,5.47579 -1.2227,2.73471 -1.2936,3.21764 -0.6902,4.69665 0.37,0.90669 1.0781,3.05752 1.5736,4.77962 0.4956,1.72211 1.4096,3.95302 2.0312,4.95758 0.6216,1.00456 1.1311,2.32318 1.1321,2.93026 10e-4,0.60708 0.4716,1.70087 1.0457,2.43064 1.4409,1.83185 1.3082,2.82511 -0.5027,3.76154 -1.356,0.70124 -1.7895,0.70825 -3.5224,0.057 -1.0869,-0.40846 -3.5916,-0.88933 -5.566,-1.0686 -1.9745,-0.17926 -4.2524,-0.66855 -5.0622,-1.08728 -2.2232,-1.14966 -5.1194,-0.87311 -7.7747,0.74236 -3.1886,1.94001 -3.4615,3.14787 -2.7556,12.19722 0.4858,6.22887 0.7463,7.55979 1.743,8.90797 0.8193,1.10811 1.2693,2.6488 1.4959,5.12078 0.2331,2.54284 0.6317,3.87193 1.4195,4.73273 0.7035,0.76884 1.2225,2.25971 1.4509,4.16849 0.2569,2.14745 0.7803,3.50606 1.8871,4.89887 1.2384,1.55826 1.5317,2.4327 1.5317,4.56671 0,2.15912 0.2574,2.9081 1.4147,4.11608 1.198,1.2504 1.4179,1.93917 1.4351,4.4949 0.017,2.51425 0.26,3.30299 1.4554,4.72365 1.1695,1.38976 1.4351,2.216 1.4351,4.46381 0,2.27919 0.272,3.10061 1.5656,4.72837 1.27,1.59815 1.5686,2.47357 1.5818,4.63794 0.011,1.75213 0.457,3.56363 1.2999,5.27721 0.7059,1.43509 1.2857,3.13762 1.2883,3.78341 0.01,1.45756 -1.7286,3.26156 -3.1359,3.26156 -1.3795,0 -6.0709,-2.42391 -8.1708,-4.22162 -0.9115,-0.78033 -2.3209,-1.56455 -3.1321,-1.74272 -0.8112,-0.17816 -3.0009,-1.75859 -4.8659,-3.51206 -5.4893,-5.16094 -8.4911,-7.58168 -10.436,-8.41609 -1.0045,-0.43098 -3.6303,-2.511 -5.835,-4.62227 -3.9926,-3.82346 -7.0102,-6.31576 -10.6501,-8.79624 -1.053,-0.71754 -2.5299,-1.92747 -3.2821,-2.68873 -0.7522,-0.76125 -2.9867,-2.23657 -4.9654,-3.27848 -1.9788,-1.04191 -4.2864,-2.47385 -5.1281,-3.18209 -0.8417,-0.70823 -2.0185,-1.2877 -2.6152,-1.2877 -0.5967,0 -1.8115,-0.55164 -2.6997,-1.22587 -1.9912,-1.5116 -4.8157,-2.07609 -7.9993,-1.59869 -2.6485,0.39717 -3.7237,1.29976 -6.0094,5.04451 -1.3631,2.23316 -1.4351,2.6777 -1.4351,8.85619 0,5.72914 -0.1183,6.61207 -0.992,7.40271 -1.6588,1.50124 -4.8484,0.27275 -8.6237,-3.32152 -1.7487,-1.6649 -4.0469,-3.30051 -5.1266,-3.64856 -1.0763,-0.34697 -1.9569,-0.80978 -1.9569,-1.02848 0,-0.80888 -2.7425,-1.60884 -5.5157,-1.60884 -2.6228,0 -3.049,0.17671 -5.1939,2.15386 -1.2852,1.18463 -2.3367,2.44315 -2.3367,2.79672 0,0.35357 -0.7045,1.96305 -1.5655,3.57663 -1.0995,2.06044 -1.5693,3.67459 -1.578,5.42242 -0.013,2.64978 -0.4715,4.81649 -1.7555,8.30076 -0.6354,1.72413 -0.8132,5.16406 -0.8823,17.0734 -0.085,14.7213 -0.1034,14.94992 -1.3864,17.67116 -1.2018,2.54897 -1.3206,3.50459 -1.5758,12.67203 l -0.2761,9.91515 -1.9519,1.95694 c -2.5431,2.54965 -3.9272,2.52857 -6.4158,-0.0976 z m -10.9958,-114.70185 c 1.8386,-1.29313 2.5786,-1.45286 7.8571,-1.69602 5.1409,-0.23681 6.0323,-0.42008 7.5668,-1.55582 1.4309,-1.05902 2.5399,-1.33673 6.2516,-1.56555 3.2425,-0.1999 4.7916,-0.53126 5.5053,-1.17766 0.5463,-0.49473 2.0181,-1.26107 3.2706,-1.703 1.2526,-0.44193 2.5848,-1.05861 2.9605,-1.3704 1.0919,-0.90627 8.5775,-4.63763 9.3035,-4.63763 0.3634,0 1.2641,-0.47469 2.0017,-1.05487 0.7376,-0.58018 2.3427,-1.40828 3.567,-1.84021 1.2242,-0.43194 2.605,-1.12848 3.0684,-1.54787 0.4635,-0.41938 1.6493,-1.03619 2.6352,-1.3707 0.9859,-0.3345 2.4451,-1.06273 3.2427,-1.61827 0.7975,-0.55554 2.2475,-1.23028 3.2222,-1.49941 1.1202,-0.3093 2.9866,-1.75063 5.0731,-3.9177 2.2035,-2.28869 4.3417,-3.91371 6.4319,-4.88833 2.6529,-1.23694 5.0558,-3.40142 15.7316,-14.17038 9.4746,-9.55717 12.6863,-13.11855 12.9461,-14.35548 0.1901,-0.90477 1.3732,-2.73296 2.6292,-4.06262 1.256,-1.32967 2.5656,-3.28998 2.9102,-4.35624 0.3446,-1.06626 1.734,-3.12035 3.0875,-4.56465 1.3535,-1.4443 2.7635,-3.5578 3.1333,-4.69665 0.3697,-1.13886 1.0785,-2.65773 1.575,-3.37527 0.4966,-0.71755 1.0819,-1.89171 1.3007,-2.60925 0.2188,-0.71755 0.8036,-1.89171 1.2995,-2.60925 0.8409,-1.21678 5.2236,-10.18152 5.2236,-10.68486 0,-0.1252 0.5871,-1.09276 1.3046,-2.15012 0.8705,-1.28271 1.3047,-2.63941 1.3047,-4.07683 0,-1.48224 0.4407,-2.80269 1.4126,-4.23245 1.1477,-1.68824 1.4658,-2.86123 1.696,-6.25287 0.2088,-3.07529 0.5948,-4.67552 1.4657,-6.07603 1.088,-1.74966 1.192,-2.5888 1.3046,-10.52634 0.1192,-8.40297 0.1559,-8.66082 1.427,-10.01225 l 1.3046,-1.38716 0.1501,-18.007 0.1501,-18.007 -1.5946,-2.40749 c -1.5766,-2.3802 -1.5941,-2.48227 -1.5418,-9.00065 0.05,-6.27218 -0.013,-6.68986 -1.2952,-8.5796 -1.1392,-1.67873 -1.348,-2.56564 -1.348,-5.72534 0,-3.21532 -0.2086,-4.06774 -1.4894,-6.08734 -0.9205,-1.45144 -1.5866,-3.33426 -1.744,-4.92929 -0.1587,-1.60828 -0.7773,-3.34569 -1.6417,-4.61058 -0.7629,-1.11636 -1.3871,-2.30969 -1.3871,-2.65184 0,-0.34215 -1.0436,-2.599 -2.319,-5.01522 -2.532,-4.79659 -5.2775,-10.29333 -8.5868,-17.19176 -1.5689,-3.27028 -2.9767,-5.27508 -5.3136,-7.56682 -1.9416,-1.90413 -3.7648,-4.33664 -4.6837,-6.2489 -1.2581,-2.61823 -3.7509,-5.36771 -15.2191,-16.78587 -11.4807,-11.43073 -14.0561,-13.74487 -15.8115,-14.20798 -1.3369,-0.35269 -2.9338,-1.40579 -4.4054,-2.90529 -1.396,-1.42236 -3.2486,-2.669 -4.6871,-3.15386 -1.4145,-0.47681 -3.3151,-1.74491 -4.6892,-3.12864 -1.4287,-1.438782 -3.2557,-2.640782 -4.787,-3.149372 -1.362,-0.45238 -2.7454,-1.1468 -3.0744,-1.54315 -0.3289,-0.39634 -1.2574,-0.86544 -2.0632,-1.04243 -0.8058,-0.17699 -2.2442,-0.89658 -3.1964,-1.59909 -0.9522,-0.70251 -2.1226,-1.27729 -2.6008,-1.27729 -0.4782,0 -1.7829,-0.63003 -2.8992,-1.40008 -1.3063,-0.901 -3.0866,-1.53027 -4.9945,-1.76535 -1.7399,-0.21437 -3.6412,-0.84696 -4.6021,-1.53122 -0.9973,-0.71015 -2.8452,-1.30835 -4.7268,-1.53021 -2.2167,-0.26137 -3.4712,-0.72315 -4.4413,-1.63489 -1.2459,-1.17088 -1.8032,-1.27893 -7.0996,-1.37634 -5.2698,-0.0969 -5.8924,-0.21619 -7.4904,-1.43508 l -1.743,-1.32938 h -31.1537 -31.1538 l -1.888,1.17416 c -1.3893,0.86396 -2.9977,1.24936 -6.0883,1.45882 -3.4346,0.23279 -4.5284,0.53047 -6.0013,1.6332 -1.2253,0.91742 -2.6876,1.42856 -4.5743,1.59888 -1.7173,0.15504 -3.362,0.68569 -4.3197,1.39374 -0.9084,0.67161 -2.671,1.26443 -4.2717,1.43674 -1.4989,0.16133 -3.5472,0.81403 -4.5518,1.45043 -1.0046,0.6364 -2.6331,1.43482 -3.6191,1.77428 -0.9859,0.33945 -2.1717,0.96032 -2.6351,1.3797 -0.4634,0.41938 -1.876,1.12713 -3.1391,1.57277 -1.2631,0.44564 -2.6604,1.12663 -3.1052,1.51331 -0.4448,0.38669 -1.6888,0.98564 -2.7645,1.331 -1.0757,0.34537 -3.0136,1.685712 -4.3065,2.978552 -1.328,1.32805 -3.1746,2.57813 -4.2448,2.87362 -1.0418,0.28766 -2.9904,1.54838 -4.3302,2.80161 -1.3398,1.25322 -3.5984,2.77113 -5.0191,3.37313 -2.0906,0.88584 -5.5434,4.0495 -18.1086,16.59212 -13.3941,13.36996 -15.6368,15.83275 -16.3365,17.93904 -0.5063,1.52451 -1.4371,2.91944 -2.4783,3.71407 -1.0518,0.80278 -2.4987,2.98497 -3.9193,5.91093 -1.2385,2.55108 -4.2053,8.51306 -6.5928,13.24885 -2.3875,4.73579 -4.5194,9.19761 -4.7377,9.91515 -0.2182,0.71754 -0.9218,2.00912 -1.5635,2.87018 -0.7149,0.95933 -1.2587,2.58807 -1.4043,4.20621 -0.153,1.69982 -0.7332,3.36985 -1.6284,4.68732 -1.1741,1.72788 -1.3907,2.6072 -1.3907,5.64542 0,3.04965 -0.241,4.01995 -1.5794,6.35922 -1.5418,2.69477 -1.5779,2.91763 -1.5173,9.36243 0.05,5.30159 -0.098,6.77849 -0.7491,7.49822 -2.2601,2.49737 -2.4164,3.93424 -2.4164,22.20319 0,18.023 0.1362,19.35985 2.1964,21.55926 0.9875,1.05425 1.0747,1.72402 0.9878,7.58429 -0.093,6.24678 -0.051,6.51172 1.4913,9.40124 1.3257,2.48436 1.5867,3.56366 1.5867,6.56329 0,3.01894 0.219,3.91271 1.3767,5.61879 0.8537,1.25796 1.5114,3.11968 1.7311,4.89994 0.2238,1.81419 0.8696,3.61834 1.7543,4.90089 0.77,1.11637 1.4001,2.34088 1.4001,2.72113 0,0.38025 1.2915,3.05641 2.8701,5.94704 1.5786,2.89062 2.8702,5.56789 2.8702,5.94948 0,0.3816 0.4676,1.28826 1.0391,2.01481 0.5715,0.72655 1.5226,2.44899 2.1136,3.82765 0.5909,1.37866 2.0921,3.59466 3.336,4.92444 1.2439,1.32977 2.4151,3.11696 2.6028,3.97153 0.1877,0.85456 1.388,2.75033 2.6673,4.2128 1.2794,1.46248 2.7718,3.69886 3.3166,4.96974 1.4548,3.39384 25.2554,27.09579 28.068,27.95157 1.3053,0.39718 3.3613,1.94738 5.9381,4.47728 2.6146,2.56712 4.5858,4.04769 5.8558,4.39835 1.0529,0.29073 2.5813,1.00344 3.3963,1.5838 0.815,0.58036 2.1691,1.22769 3.0091,1.43851 0.84,0.21081 2.7528,1.5424 4.2507,2.95907 2.432,2.30005 3.0503,2.61431 5.7759,2.93569 1.7178,0.20254 3.7243,0.82849 4.589,1.43153 0.845,0.58938 2.2412,1.30977 3.1025,1.60085 0.8614,0.29108 2.4793,1.14891 3.5953,1.90629 1.1161,0.75738 2.3712,1.37706 2.7891,1.37706 0.4179,0 1.5006,0.52837 2.406,1.17416 1.2954,0.92402 2.6152,1.23472 6.1951,1.45842 3.8901,0.24308 4.7464,0.46982 5.9126,1.56555 1.2356,1.16098 1.911,1.3058 7.1927,1.54222 5.1809,0.23192 6.09,0.41992 8.1773,1.69108 l 2.3483,1.43015 25.8892,0.005 25.8892,0.005 z"
       id="path7" />
  </g>
</svg>
